<?xml version="1.0" encoding="UTF-8"?>
<svg id="Layer_1" xmlns="http://www.w3.org/2000/svg" viewBox="0 0 300 300">
  <defs>
    <style>
      .cls-1 {
        fill: #00b0d8;
      }

      .cls-2 {
        fill: #98c93c;
      }
    </style>
  </defs>
  <path class="cls-2" d="M188.98,139.91c-.58-.64-1.17-1.26-1.79-1.87h0c-.61-.61-1.23-1.21-1.87-1.8-21.14-19.98-23.91-17.47-24.27-54.17v-24.86h2.09c5.86,0,10.66-4.8,10.66-10.66v-3.07h25.25c6.1,0,11.04-4.95,11.04-11.04s-4.95-11.04-11.04-11.04h-38s-22.09,0-22.09,0h0s-37.99,0-37.99,0c-6.1,0-11.05,4.95-11.05,11.04s4.95,11.04,11.05,11.04h25.24v3.07c0,5.86,4.8,10.66,10.66,10.66h2.09v25.66c-.39,35.88-3.27,33.54-24.26,53.38-.64.58-1.26,1.17-1.87,1.79h0c-.61.61-1.2,1.24-1.79,1.88-23.26,24.62-15.99,24.32-75.69,24.32v21.97c59.7,0,52.42-.3,75.69,24.32.58.65,1.18,1.27,1.79,1.87h0c.61.62,1.24,1.21,1.87,1.8,24.62,23.26,24.32,15.99,24.32,75.69h21.97c0-59.7-.3-52.42,24.32-75.69.65-.58,1.27-1.18,1.87-1.79h0c.61-.61,1.2-1.24,1.79-1.88,23.26-24.62,15.99-24.32,75.69-24.32v-21.97c-59.7,0-52.42.3-75.69-24.32ZM180.49,174.83v1.18h0v.39s-.02.39-.02.39h0l-.02.39-.02.39h0l-.02.39h0l-.03.39-.04.38h0l-.04.39h0l-.05.38-.06.38-.06.38h0l-.06.38h0l-.06.38h0l-.07.37h0l-.07.37-.17.73-.09.37-.09.37h0l-.09.35h0l-.09.37h0l-.1.35h0l-.1.35h0l-.12.36-.12.35-.13.35h0l-.13.35-.13.35-.14.35-.14.35-.14.34h0l-.15.34-.15.34-.16.33h0l-.16.33h0s-.17.33-.17.33l-.17.33-.17.32-.17.32-.19.32-.18.32-.19.31-.2.32-.2.31h0s-.2.31-.2.31l-.2.3h0s-.21.31-.21.31l-.21.3-.21.3-.22.29-.22.29-.22.29h0l-.23.29-.23.28h0s-.23.28-.23.28h0l-.24.28-.24.28h0l-.24.28h0l-.24.27-.24.27h0l-.25.26-.25.26h0s-.26.26-.26.26l-.26.25h0s-.27.25-.27.25l-.27.24h0s-.28.24-.28.24h0s-.28.24-.28.24l-.28.24h0s-.28.24-.28.24h0l-.28.23-.29.23h0s-.29.23-.29.23l-.29.22-.29.22-.3.21-.3.21-.3.2h0l-.3.2-.31.2h0l-.31.2-.31.2-.32.19-.32.18-.32.19-.32.17-.32.17-.32.17-.33.17h0l-.33.16h0s-.33.17-.33.17l-.34.15-.34.15h0s-.34.15-.34.15l-.35.14-.35.14-.35.13-.35.13h0s-.35.13-.35.13l-.35.12-.36.12h0s-.35.11-.35.11h0s-.35.11-.35.11h0s-.37.1-.37.1h0s-.35.1-.35.1h0s-.37.1-.37.1l-.37.09-.73.17-.37.07h0s-.37.08-.37.08h0s-.38.07-.38.07h0s-.38.06-.38.06h0s-.38.06-.38.06l-.38.06-.38.05h0s-.39.05-.39.05h0s-.38.05-.38.05l-.39.03h0s-.39.03-.39.03h0s-.39.03-.39.03l-.39.02h0s-.39.02-.39.02h-.39v.02h-1.57s-.39-.02-.39-.02l-.39-.02h0s-.39-.02-.39-.02l-.39-.02h0s-.39-.03-.39-.03h0s-.39-.04-.39-.04l-.38-.04h0s-.39-.05-.39-.05h0s-.38-.06-.38-.06l-.38-.06-.38-.06h0s-.38-.06-.38-.06h0s-.38-.07-.38-.07h0s-.37-.08-.37-.08h0s-.37-.08-.37-.08l-.73-.17-.37-.09-.37-.09h0s-.35-.1-.35-.1h0s-.37-.1-.37-.1h0s-.35-.11-.35-.11h0s-.35-.11-.35-.11h0s-.36-.13-.36-.13l-.35-.12-.35-.13h0s-.35-.13-.35-.13l-.35-.13-.35-.14-.35-.14-.34-.14h0s-.34-.16-.34-.16l-.33-.15h0l-.33-.16h0s-.33-.17-.33-.17h0l-.32-.17-.33-.17-.32-.17-.32-.17-.32-.19-.32-.18-.31-.19-.32-.2-.31-.2h0l-.31-.2-.3-.2h0l-.3-.2-.3-.21-.3-.21-.29-.22-.29-.22-.29-.22h0s-.29-.24-.29-.24l-.28-.23h0l-.28-.23h0s-.28-.24-.28-.24l-.28-.24h0s-.28-.24-.28-.24h0s-.27-.25-.27-.25l-.26-.24h0s-.26-.26-.26-.26l-.26-.25h0s-.25-.27-.25-.27l-.25-.26h0l-.24-.27-.24-.27h0l-.24-.28h0l-.24-.28-.24-.28h0l-.23-.28h0s-.23-.28-.23-.28l-.23-.29h0l-.22-.29-.22-.29-.22-.29-.21-.3-.2-.3h0l-.2-.3h0s-.21-.31-.21-.31l-.2-.31h0s-.2-.31-.2-.31l-.19-.32h0l-.19-.31-.18-.32-.19-.32-.17-.32-.17-.32-.17-.33-.17-.32h0s-.16-.34-.16-.34h0l-.16-.33-.15-.34-.15-.34h0l-.14-.34-.14-.35-.14-.35-.13-.35-.13-.35h0l-.12-.35h0l-.12-.35-.12-.36h0l-.1-.35h0l-.1-.35h0l-.09-.37h0l-.09-.35h0l-.09-.37-.09-.37-.17-.73-.07-.37h0l-.07-.37h0l-.06-.38h0l-.06-.38h0l-.06-.38-.06-.38-.05-.38h0l-.04-.39h0l-.04-.38-.03-.39h0l-.02-.39h0l-.02-.39-.02-.39h0l-.02-.39v-.39h-.02v-1.58h0v-.39s.02-.39.02-.39h0l.02-.39.02-.39h0l.02-.39h0l.03-.39.04-.38h0l.04-.39h0l.05-.38.06-.38.06-.38h0l.06-.38h0l.06-.38h0l.07-.37h0l.07-.37.17-.73.09-.37.09-.37h0l.09-.35h0l.09-.37h0l.1-.35h0l.1-.35h0l.12-.36.12-.35h0l.12-.35h0l.13-.35.13-.35.14-.35.14-.35.14-.34h0l.15-.34.15-.33h0s.16-.34.16-.34h0l.16-.33h0s.17-.33.17-.33l.17-.33.17-.32.17-.32.19-.32.18-.31.19-.32h0l.19-.31.2-.31h0s.2-.32.2-.32l.21-.3h0s.2-.31.2-.31h0l.2-.3.21-.3.22-.29.22-.29.22-.29h0l.23-.29.23-.28h0s.23-.28.23-.28h0l.24-.28.24-.28h0l.24-.28h0l.24-.27.24-.27h0l.25-.26.25-.26h0s.26-.26.26-.26l.26-.25h0s.26-.25.26-.25l.27-.24h0s.28-.24.28-.24h0s.28-.24.28-.24l.28-.24h0s.28-.24.28-.24h0l.28-.23.29-.23h0s.29-.23.29-.23l.29-.22.29-.22.3-.21.3-.21h0s.3-.21.3-.21h0l.3-.2.31-.2h0l.31-.2.32-.19h0s.31-.2.31-.2l.32-.18.32-.19.32-.17.32-.17.33-.17.32-.17h0l.33-.16h0s.33-.17.33-.17h0l.33-.15.34-.15h0s.34-.15.34-.15l.35-.14.35-.14.35-.13.35-.13h0s.35-.13.35-.13h0s.35-.13.35-.13l.36-.12h0s.35-.11.35-.11h0s.35-.11.35-.11h0s.37-.1.37-.1h0s.35-.1.35-.1h0s.37-.1.37-.1l.37-.09.73-.17.37-.07h0s.37-.08.37-.08h0s.38-.07.38-.07h0s.38-.06.38-.06h0s.38-.06.38-.06l.38-.06.38-.05h0s.39-.05.39-.05h0s.38-.05.38-.05l.39-.03h0s.39-.03.39-.03h0s.39-.03.39-.03l.39-.02h0s.39-.02.39-.02h.39v-.02h1.57s.39.02.39.02l.39.02h0s.39.02.39.02l.39.02h0s.39.03.39.03h0s.39.04.39.04l.38.04h0s.39.05.39.05h0s.38.06.38.06l.38.06.38.06h0s.38.06.38.06h0s.38.07.38.07h0s.37.08.37.08h0s.37.08.37.08l.73.17.37.09.37.09h0s.35.1.35.1h0s.37.1.37.1h0s.35.11.35.11h0s.35.11.35.11h0s.36.13.36.13l.35.12h0s.35.13.35.13h0s.35.13.35.13l.35.13.35.14.35.14.34.14h0s.34.16.34.16l.34.15.33.16h0s.33.17.33.17h0l.33.17.32.17.32.17.32.17.32.19.32.18.32.19h0s.31.2.31.2l.31.2h0l.31.2.3.2h0l.3.21h0s.3.21.3.21l.3.21.29.22.29.22.29.22h0s.29.24.29.24l.28.23h0l.28.23h0s.28.24.28.24l.28.24h0s.28.24.28.24h0s.27.25.27.25l.27.24h0s.26.26.26.26l.26.25h0s.25.27.25.27l.25.26h0l.24.27.24.27h0l.24.28h0l.24.28.24.28h0l.23.28h0s.23.28.23.28l.23.29h0l.22.29.22.29.22.29.21.3.21.3.21.3h0s.2.31.2.31l.2.31h0s.2.32.2.32l.2.31.19.32.18.31.19.32.17.32.17.32.17.33.17.32h0s.16.34.16.34h0l.16.33h0s.15.34.15.34l.15.34h0l.14.34.14.35.14.35.13.35.13.35h0l.13.35.12.35.12.36h0l.1.35h0l.1.35h0l.09.37h0l.09.35h0l.09.37.09.37.17.73.07.37h0l.07.37h0l.06.38h0l.06.38h0l.06.38.06.38.05.38h0l.04.39h0l.04.38.03.39h0l.02.39h0l.02.39.02.39h0l.02.39v.39h.02v.39ZM161.04,11.27c0-14.25-22.09-14.48-22.09,0v2.84h22.09v-2.84Z"/>
  <path class="cls-1" d="M203.47,64.26c-8.61-4.14-18.96-.52-23.11,8.1-4.15,8.62-.52,18.97,8.1,23.11,30.67,14.76,50.49,46.29,50.49,80.33,0,49.11-39.9,89.06-88.95,89.06s-88.95-39.95-88.95-89.06c0-34.04,19.82-65.58,50.49-80.33,8.62-4.15,12.24-14.49,8.1-23.11-4.15-8.62-14.49-12.24-23.11-8.1-42.59,20.49-70.11,64.27-70.11,111.54,0,68.21,55.44,123.69,123.59,123.69s123.59-55.49,123.59-123.69c0-47.27-27.52-91.05-70.11-111.54Z"/>
</svg>